<svg width="18" height="18" viewBox="0 0 18 18" fill="none" xmlns="http://www.w3.org/2000/svg">
<path d="M10.1495 5.88154H11.8489C12.0845 5.8817 12.3165 5.93668 12.5239 6.04155C12.7313 6.14643 12.9078 6.29793 13.0375 6.48249C13.1672 6.66704 13.2461 6.87889 13.2671 7.09907C13.2881 7.31925 13.2506 7.54088 13.1579 7.74413L9.39615 15.9814C9.30534 16.1786 9.14488 16.3405 8.94177 16.4398C8.73867 16.5391 8.50532 16.5697 8.28098 16.5265C8.05664 16.4833 7.85501 16.3689 7.71001 16.2026C7.56502 16.0363 7.48551 15.8282 7.48486 15.6133V9.4463L6.10459 9.4062C5.73497 9.39463 5.38463 9.2487 5.12759 8.99925C4.87055 8.7498 4.72697 8.41636 4.72717 8.06941V2.79089C4.72717 2.43635 4.8773 2.09633 5.14452 1.84564C5.41174 1.59494 5.77418 1.4541 6.15209 1.4541H8.72454C9.10245 1.4541 9.46488 1.59494 9.73211 1.84564C9.99933 2.09633 10.1495 2.43635 10.1495 2.79089V5.88154Z" fill="#9E9E9E"/>
</svg>
