<svg width="18" height="18" viewBox="0 0 18 18" fill="none" xmlns="http://www.w3.org/2000/svg">
<path d="M2.14887 18C1.28864 18 0.720556 17.0586 1.14256 16.3282C2.81433 13.5041 5.86573 11.7024 9.19305 11.7024C12.5204 11.7024 15.5718 13.5041 17.2435 16.3282C17.6818 17.0586 17.0975 18 16.2372 18H2.14887ZM4.15338 5.03156C4.15786 5.03156 4.16149 5.02788 4.1615 5.0234C4.16592 2.25167 6.4203 0 9.19305 0C11.9685 0 14.2246 2.25609 14.2246 5.03156C14.2246 7.80703 11.9685 10.0794 9.19305 10.0794C6.42029 10.0794 4.14969 7.82766 4.14527 5.03972C4.14526 5.03524 4.1489 5.03156 4.15338 5.03156Z" fill="#9E9E9E"/>
</svg>
